<svg xmlns:xlink="http://www.w3.org/1999/xlink" xmlns="http://www.w3.org/2000/svg" width="22" height="18.333" viewBox="0 0 22 18.333">
                        <path style="fill-rule: evenodd;" d="M694.167,614.667H675.833A1.833,1.833,0,0,1,674,612.833h0A1.833,1.833,0,0,1,675.833,611h18.333A1.833,1.833,0,0,1,696,612.833h0A1.833,1.833,0,0,1,694.167,614.667Zm0,7.333H675.833A1.833,1.833,0,0,1,674,620.167h0a1.833,1.833,0,0,1,1.833-1.833h18.333A1.833,1.833,0,0,1,696,620.167h0A1.833,1.833,0,0,1,694.167,622Zm0,7.333H675.833A1.833,1.833,0,0,1,674,627.5h0a1.833,1.833,0,0,1,1.833-1.833h18.333A1.833,1.833,0,0,1,696,627.5h0A1.833,1.833,0,0,1,694.167,629.333Z" transform="translate(-674 -611)" stroke="#17223b" fill="#17223B"></path>
                    </svg>